<svg xmlns="http://www.w3.org/2000/svg" version="1.1" xmlns:xlink="http://www.w3.org/1999/xlink" xmlns:svgjs="http://svgjs.dev/svgjs" width="1440" height="560" preserveAspectRatio="none" viewBox="0 0 1440 560"><g clip-path="url(&quot;#SvgjsClipPath1000&quot;)" fill="none"><rect width="1440" height="560" x="0" y="0" fill="#0e2a47"></rect><circle r="93.335" cx="56.89" cy="-14.41" stroke="#365aa3" stroke-opacity="0.25" stroke-width="2"></circle><circle r="93.335" cx="352.89" cy="398.75" stroke="#365aa3" stroke-opacity="0.25" stroke-width="2"></circle><circle r="93.335" cx="793.21" cy="706.81" stroke="#365aa3" stroke-opacity="0.25" stroke-width="2"></circle><circle r="48.3" cx="993.89" cy="52.27" stroke="#365aa3" stroke-opacity="0.25" stroke-width="2"></circle><circle r="144.835" cx="577.69" cy="424.7" stroke="#365aa3" stroke-opacity="0.25" stroke-width="2"></circle><circle r="48.94" cx="120.37" cy="181.05" stroke="#365aa3" stroke-opacity="0.25" stroke-width="2"></circle><circle r="165.13" cx="165.72" cy="395.59" stroke="#365aa3" stroke-opacity="0.25" stroke-width="2"></circle><circle r="125.535" cx="1338.72" cy="70.61" stroke="#365aa3" stroke-opacity="0.25" stroke-width="2"></circle><circle r="47.41" cx="1232.8" cy="21.86" stroke="#365aa3" stroke-opacity="0.25" stroke-width="2"></circle><circle r="168.465" cx="669.85" cy="320.81" stroke="#365aa3" stroke-opacity="0.25" stroke-width="2"></circle><circle r="178.97" cx="717.2" cy="129.23" stroke="#365aa3" stroke-opacity="0.25" stroke-width="2"></circle><circle r="110.785" cx="259.93" cy="152.91" stroke="#365aa3" stroke-opacity="0.25" stroke-width="2"></circle><circle r="106.565" cx="589.85" cy="540.14" stroke="#365aa3" stroke-opacity="0.25" stroke-width="2"></circle><circle r="162.975" cx="1331.45" cy="187.3" stroke="#365aa3" stroke-opacity="0.25" stroke-width="2"></circle><circle r="66.58" cx="1095.74" cy="325.18" stroke="#365aa3" stroke-opacity="0.25" stroke-width="2"></circle><circle r="145.13" cx="1029.06" cy="218.29" stroke="#365aa3" stroke-opacity="0.25" stroke-width="2"></circle><circle r="57.33" cx="1156.03" cy="144.25" stroke="#365aa3" stroke-opacity="0.25" stroke-width="2"></circle><circle r="184.86" cx="536.6" cy="23.17" stroke="#365aa3" stroke-opacity="0.25" stroke-width="2"></circle><circle r="115.09" cx="742.64" cy="354.76" stroke="#365aa3" stroke-opacity="0.25" stroke-width="2"></circle><circle r="65" cx="708.43" cy="413.46" stroke="#365aa3" stroke-opacity="0.25" stroke-width="2"></circle><circle r="84.225" cx="895.01" cy="77.26" stroke="#365aa3" stroke-opacity="0.25" stroke-width="2"></circle><circle r="166.5" cx="1020.54" cy="125.55" stroke="#365aa3" stroke-opacity="0.25" stroke-width="2"></circle><circle r="136.72" cx="883.03" cy="306.43" stroke="#365aa3" stroke-opacity="0.25" stroke-width="2"></circle><circle r="147.29" cx="893.76" cy="435.25" stroke="#365aa3" stroke-opacity="0.25" stroke-width="2"></circle><circle r="150.125" cx="30.57" cy="521.06" stroke="#365aa3" stroke-opacity="0.25" stroke-width="2"></circle><circle r="109.485" cx="1340.56" cy="290.54" stroke="#365aa3" stroke-opacity="0.25" stroke-width="2"></circle><circle r="74.515" cx="281.56" cy="349.79" stroke="#365aa3" stroke-opacity="0.25" stroke-width="2"></circle><circle r="137" cx="399.86" cy="145.55" stroke="#365aa3" stroke-opacity="0.25" stroke-width="2"></circle><circle r="94.235" cx="1095.36" cy="516.06" stroke="#365aa3" stroke-opacity="0.25" stroke-width="2"></circle><circle r="160.32" cx="883.72" cy="50.13" stroke="#365aa3" stroke-opacity="0.25" stroke-width="2"></circle><circle r="104.675" cx="876.05" cy="417.78" stroke="#365aa3" stroke-opacity="0.25" stroke-width="2"></circle><circle r="77.97" cx="801.32" cy="377.41" stroke="#365aa3" stroke-opacity="0.25" stroke-width="2"></circle><circle r="116.69" cx="304.82" cy="2.12" stroke="#365aa3" stroke-opacity="0.25" stroke-width="2"></circle><circle r="79.505" cx="478.65" cy="291.8" stroke="#365aa3" stroke-opacity="0.25" stroke-width="2"></circle><circle r="164.11" cx="128.03" cy="557.99" stroke="#365aa3" stroke-opacity="0.25" stroke-width="2"></circle><circle r="182.97" cx="931.53" cy="416.54" stroke="#365aa3" stroke-opacity="0.25" stroke-width="2"></circle><circle r="78.445" cx="568.77" cy="447.88" stroke="#365aa3" stroke-opacity="0.25" stroke-width="2"></circle><circle r="124.825" cx="438.92" cy="341.64" stroke="#365aa3" stroke-opacity="0.25" stroke-width="2"></circle><circle r="131.97" cx="371.78" cy="436.74" stroke="#365aa3" stroke-opacity="0.25" stroke-width="2"></circle><circle r="137.72" cx="554.58" cy="182.9" stroke="#365aa3" stroke-opacity="0.25" stroke-width="2"></circle></g><defs><clipPath id="SvgjsClipPath1000"><rect width="1440" height="560" x="0" y="0"></rect></clipPath></defs></svg>