<svg xmlns="http://www.w3.org/2000/svg" version="1.1" xmlns:xlink="http://www.w3.org/1999/xlink" xmlns:svgjs="http://svgjs.dev/svgjs" width="1440" height="560" preserveAspectRatio="none" viewBox="0 0 1440 560"><g clip-path="url(&quot;#SvgjsClipPath1190&quot;)" fill="none"><rect width="1440" height="560" x="0" y="0" fill="#0e2a47"></rect><circle r="93.335" cx="47.7" cy="6.77" stroke="#365aa3" stroke-opacity="0.25" stroke-width="2"></circle><circle r="93.335" cx="328.21" cy="321.88" stroke="#365aa3" stroke-opacity="0.25" stroke-width="2"></circle><circle r="93.335" cx="745.08" cy="791.21" stroke="#365aa3" stroke-opacity="0.25" stroke-width="2"></circle><circle r="90.52" cx="392.3" cy="375.83" stroke="#365aa3" stroke-opacity="0.25" stroke-width="2"></circle><circle r="85.16" cx="1408" cy="285.94" stroke="#365aa3" stroke-opacity="0.25" stroke-width="2"></circle><circle r="85.185" cx="1362.84" cy="415.18" stroke="#365aa3" stroke-opacity="0.25" stroke-width="2"></circle><circle r="164.625" cx="565.5" cy="119" stroke="#365aa3" stroke-opacity="0.25" stroke-width="2"></circle><circle r="55.015" cx="736.45" cy="502.52" stroke="#365aa3" stroke-opacity="0.25" stroke-width="2"></circle><circle r="145.56" cx="1312.12" cy="406.5" stroke="#365aa3" stroke-opacity="0.25" stroke-width="2"></circle><circle r="151.255" cx="1008.38" cy="436.3" stroke="#365aa3" stroke-opacity="0.25" stroke-width="2"></circle><circle r="153.375" cx="234.1" cy="88.39" stroke="#365aa3" stroke-opacity="0.25" stroke-width="2"></circle><circle r="68.785" cx="607.02" cy="279.42" stroke="#365aa3" stroke-opacity="0.25" stroke-width="2"></circle><circle r="47.07" cx="58.42" cy="309.33" stroke="#365aa3" stroke-opacity="0.25" stroke-width="2"></circle><circle r="135.98" cx="338.77" cy="506.69" stroke="#365aa3" stroke-opacity="0.25" stroke-width="2"></circle><circle r="55.045" cx="776.36" cy="2.32" stroke="#365aa3" stroke-opacity="0.25" stroke-width="2"></circle><circle r="115.97" cx="132.16" cy="545.07" stroke="#365aa3" stroke-opacity="0.25" stroke-width="2"></circle><circle r="58.18" cx="1140.3" cy="64.71" stroke="#365aa3" stroke-opacity="0.25" stroke-width="2"></circle><circle r="73.29" cx="820.5" cy="53.29" stroke="#365aa3" stroke-opacity="0.25" stroke-width="2"></circle><circle r="126.825" cx="794.32" cy="219.77" stroke="#365aa3" stroke-opacity="0.25" stroke-width="2"></circle><circle r="146.64" cx="1182.41" cy="406.79" stroke="#365aa3" stroke-opacity="0.25" stroke-width="2"></circle><circle r="108.935" cx="431.96" cy="230.64" stroke="#365aa3" stroke-opacity="0.25" stroke-width="2"></circle><circle r="52.59" cx="242.28" cy="328.45" stroke="#365aa3" stroke-opacity="0.25" stroke-width="2"></circle><circle r="115.685" cx="834.23" cy="440.46" stroke="#365aa3" stroke-opacity="0.25" stroke-width="2"></circle><circle r="81" cx="1063.03" cy="245.84" stroke="#365aa3" stroke-opacity="0.25" stroke-width="2"></circle><circle r="120.85" cx="325.03" cy="521.76" stroke="#365aa3" stroke-opacity="0.25" stroke-width="2"></circle><circle r="71.08" cx="775.35" cy="98.22" stroke="#365aa3" stroke-opacity="0.25" stroke-width="2"></circle><circle r="173.57" cx="530.51" cy="221.58" stroke="#365aa3" stroke-opacity="0.25" stroke-width="2"></circle><circle r="116.98" cx="1435.43" cy="553.96" stroke="#365aa3" stroke-opacity="0.25" stroke-width="2"></circle><circle r="123.875" cx="755.85" cy="259.14" stroke="#365aa3" stroke-opacity="0.25" stroke-width="2"></circle><circle r="66.5" cx="63.9" cy="426.46" stroke="#365aa3" stroke-opacity="0.25" stroke-width="2"></circle><circle r="170.655" cx="812.35" cy="461.28" stroke="#365aa3" stroke-opacity="0.25" stroke-width="2"></circle><circle r="108.56" cx="1395.1" cy="470.04" stroke="#365aa3" stroke-opacity="0.25" stroke-width="2"></circle><circle r="105.455" cx="744.63" cy="425.41" stroke="#365aa3" stroke-opacity="0.25" stroke-width="2"></circle><circle r="64.365" cx="978.03" cy="251.43" stroke="#365aa3" stroke-opacity="0.25" stroke-width="2"></circle><circle r="161.765" cx="328.85" cy="382.13" stroke="#365aa3" stroke-opacity="0.25" stroke-width="2"></circle><circle r="147.375" cx="815.33" cy="374.77" stroke="#365aa3" stroke-opacity="0.25" stroke-width="2"></circle><circle r="132.055" cx="1294.84" cy="384.61" stroke="#365aa3" stroke-opacity="0.25" stroke-width="2"></circle><circle r="84.35" cx="297.48" cy="556.64" stroke="#365aa3" stroke-opacity="0.25" stroke-width="2"></circle><circle r="112.905" cx="354.55" cy="99.32" stroke="#365aa3" stroke-opacity="0.25" stroke-width="2"></circle><circle r="167.18" cx="1339.7" cy="518.85" stroke="#365aa3" stroke-opacity="0.25" stroke-width="2"></circle></g><defs><clipPath id="SvgjsClipPath1190"><rect width="1440" height="560" x="0" y="0"></rect></clipPath></defs></svg>